<?xml version="1.0" encoding="iso-8859-1"?>
<!-- Generator: Adobe Illustrator 19.0.0, SVG Export Plug-In . SVG Version: 6.00 Build 0)  -->
<svg version="1.1" id="Capa_1" xmlns="http://www.w3.org/2000/svg" xmlns:xlink="http://www.w3.org/1999/xlink" x="0px" y="0px"
	 viewBox="0 0 355 355" style="enable-background:new 0 0 355 355;" xml:space="preserve">
<g id="XMLID_980_">
	<rect id="XMLID_46_" y="86.214" style="fill:#F9E375;" width="355" height="182.571"/>
	<rect id="XMLID_984_" x="177.5" y="86.214" style="fill:#F5D361;" width="177.5" height="182.571"/>
	<polygon id="XMLID_987_" style="fill:#D77258;" points="92.526,167.467 74.75,169.822 86.135,154.842 68.789,145.012 
		61.384,162.007 53.869,145.16 36.405,155.18 47.587,169.693 30.479,167.482 30.479,187.357 47.675,185.149 36.508,199.49 
		53.13,209.988 61.141,192.612 68.468,209.71 86.382,199.474 74.98,185.222 92.526,187.313 	"/>
	<polygon id="XMLID_990_" style="fill:#D77258;" points="171.444,167.467 153.669,169.822 165.053,154.842 147.707,145.012 
		140.302,162.007 132.788,145.16 115.324,155.18 126.506,169.693 109.398,167.482 109.398,187.357 126.594,185.149 115.427,199.49 
		132.049,209.988 140.059,192.612 147.387,209.71 165.3,199.474 153.898,185.222 171.444,187.313 	"/>
	<polygon id="XMLID_993_" style="fill:#D14F4E;" points="250.363,167.467 232.587,169.822 243.972,154.842 226.626,145.012 
		219.221,162.007 211.707,145.16 194.242,155.18 205.424,169.693 188.316,167.482 188.316,187.357 205.512,185.149 194.345,199.49 
		210.968,209.988 218.978,192.612 226.305,209.71 244.219,199.474 232.817,185.222 250.363,187.313 	"/>
	<rect id="XMLID_3_" x="271.996" y="186.251" style="fill:#D14F4E;" width="52.525" height="23.737"/>
</g>
<g>
</g>
<g>
</g>
<g>
</g>
<g>
</g>
<g>
</g>
<g>
</g>
<g>
</g>
<g>
</g>
<g>
</g>
<g>
</g>
<g>
</g>
<g>
</g>
<g>
</g>
<g>
</g>
<g>
</g>
</svg>
